<mxfile host="app.diagrams.net" agent="Mozilla/5.0 (Windows NT 10.0; Win64; x64) AppleWebKit/537.36 (KHTML, like Gecko) Chrome/132.0.0.0 Safari/537.36 Edg/132.0.0.0" version="26.0.10">
  <diagram name="Page-1" id="XVd191-IUQ7rc1ovGXxw">
    <mxGraphModel dx="2953" dy="1819" grid="1" gridSize="10" guides="1" tooltips="1" connect="1" arrows="1" fold="1" page="1" pageScale="1" pageWidth="827" pageHeight="1169" math="0" shadow="0">
      <root>
        <mxCell id="0" />
        <mxCell id="1" parent="0" />
        <mxCell id="Otvhzplql85zx0NSFxn1-1" value="Start" style="rounded=1;whiteSpace=wrap;html=1;" parent="1" vertex="1">
          <mxGeometry x="240" y="-614" width="120" height="60" as="geometry" />
        </mxCell>
        <mxCell id="Otvhzplql85zx0NSFxn1-2" value="" style="endArrow=classic;html=1;rounded=0;" parent="1" source="Otvhzplql85zx0NSFxn1-1" target="Otvhzplql85zx0NSFxn1-3" edge="1">
          <mxGeometry width="50" height="50" relative="1" as="geometry">
            <mxPoint x="300" y="-504" as="sourcePoint" />
            <mxPoint x="300" y="-483.28932188134524" as="targetPoint" />
          </mxGeometry>
        </mxCell>
        <mxCell id="Otvhzplql85zx0NSFxn1-3" value="Random word" style="rounded=1;whiteSpace=wrap;html=1;" parent="1" vertex="1">
          <mxGeometry x="240" y="-513.2893218813451" width="120" height="60" as="geometry" />
        </mxCell>
        <mxCell id="Otvhzplql85zx0NSFxn1-4" value="first char input" style="ellipse;whiteSpace=wrap;html=1;" parent="1" vertex="1">
          <mxGeometry x="430.71" y="-360" width="120" height="80" as="geometry" />
        </mxCell>
        <mxCell id="Otvhzplql85zx0NSFxn1-7" value="" style="endArrow=classic;html=1;rounded=0;" parent="1" source="Otvhzplql85zx0NSFxn1-4" target="Otvhzplql85zx0NSFxn1-10" edge="1">
          <mxGeometry width="50" height="50" relative="1" as="geometry">
            <mxPoint x="359.9993218813452" y="-270" as="sourcePoint" />
            <mxPoint x="359.9993218813452" y="-320" as="targetPoint" />
          </mxGeometry>
        </mxCell>
        <mxCell id="Otvhzplql85zx0NSFxn1-8" value="True" style="text;html=1;align=center;verticalAlign=middle;resizable=0;points=[];autosize=1;strokeColor=none;fillColor=none;" parent="1" vertex="1">
          <mxGeometry x="370" y="-310" width="50" height="30" as="geometry" />
        </mxCell>
        <mxCell id="Otvhzplql85zx0NSFxn1-9" value="False" style="text;html=1;align=center;verticalAlign=middle;resizable=0;points=[];autosize=1;strokeColor=none;fillColor=none;" parent="1" vertex="1">
          <mxGeometry x="389" y="20" width="50" height="30" as="geometry" />
        </mxCell>
        <mxCell id="Otvhzplql85zx0NSFxn1-10" value="6/6 lives" style="rounded=1;whiteSpace=wrap;html=1;" parent="1" vertex="1">
          <mxGeometry x="229.99932188134517" y="-350" width="120" height="60" as="geometry" />
        </mxCell>
        <mxCell id="Otvhzplql85zx0NSFxn1-11" value="" style="endArrow=none;html=1;rounded=0;" parent="1" source="Otvhzplql85zx0NSFxn1-4" edge="1">
          <mxGeometry width="50" height="50" relative="1" as="geometry">
            <mxPoint x="490.71" y="-230" as="sourcePoint" />
            <mxPoint x="491" as="targetPoint" />
          </mxGeometry>
        </mxCell>
        <mxCell id="Otvhzplql85zx0NSFxn1-12" value="" style="endArrow=classic;html=1;rounded=0;" parent="1" edge="1">
          <mxGeometry width="50" height="50" relative="1" as="geometry">
            <mxPoint x="490" as="sourcePoint" />
            <mxPoint x="350" as="targetPoint" />
          </mxGeometry>
        </mxCell>
        <mxCell id="Otvhzplql85zx0NSFxn1-13" value="5/6 lives" style="rounded=1;whiteSpace=wrap;html=1;" parent="1" vertex="1">
          <mxGeometry x="229.99932188134517" y="-30" width="120" height="60" as="geometry" />
        </mxCell>
        <mxCell id="Otvhzplql85zx0NSFxn1-14" value="" style="endArrow=none;html=1;rounded=0;" parent="1" source="Otvhzplql85zx0NSFxn1-1" edge="1">
          <mxGeometry width="50" height="50" relative="1" as="geometry">
            <mxPoint x="360" y="-534" as="sourcePoint" />
            <mxPoint x="500" y="-584" as="targetPoint" />
          </mxGeometry>
        </mxCell>
        <mxCell id="Otvhzplql85zx0NSFxn1-15" value="" style="endArrow=classic;html=1;rounded=0;" parent="1" edge="1">
          <mxGeometry width="50" height="50" relative="1" as="geometry">
            <mxPoint x="500.71" y="-584" as="sourcePoint" />
            <mxPoint x="501" y="-380" as="targetPoint" />
          </mxGeometry>
        </mxCell>
        <mxCell id="Otvhzplql85zx0NSFxn1-16" value="second char input" style="ellipse;whiteSpace=wrap;html=1;" parent="1" vertex="1">
          <mxGeometry x="-89.29000000000002" y="-350" width="120" height="80" as="geometry" />
        </mxCell>
        <mxCell id="Otvhzplql85zx0NSFxn1-17" value="" style="endArrow=classic;html=1;rounded=0;" parent="1" source="Otvhzplql85zx0NSFxn1-16" target="Otvhzplql85zx0NSFxn1-20" edge="1">
          <mxGeometry width="50" height="50" relative="1" as="geometry">
            <mxPoint x="-160.00067811865478" y="-260" as="sourcePoint" />
            <mxPoint x="-160.00067811865478" y="-310" as="targetPoint" />
          </mxGeometry>
        </mxCell>
        <mxCell id="Otvhzplql85zx0NSFxn1-18" value="True" style="text;html=1;align=center;verticalAlign=middle;resizable=0;points=[];autosize=1;strokeColor=none;fillColor=none;" parent="1" vertex="1">
          <mxGeometry x="-150" y="-300" width="50" height="30" as="geometry" />
        </mxCell>
        <mxCell id="Otvhzplql85zx0NSFxn1-19" value="False" style="text;html=1;align=center;verticalAlign=middle;resizable=0;points=[];autosize=1;strokeColor=none;fillColor=none;" parent="1" vertex="1">
          <mxGeometry x="-150" y="-170" width="50" height="30" as="geometry" />
        </mxCell>
        <mxCell id="Otvhzplql85zx0NSFxn1-20" value="6/6 lives" style="rounded=1;whiteSpace=wrap;html=1;" parent="1" vertex="1">
          <mxGeometry x="-290.00067811865483" y="-340" width="120" height="60" as="geometry" />
        </mxCell>
        <mxCell id="Otvhzplql85zx0NSFxn1-21" value="" style="endArrow=none;html=1;rounded=0;" parent="1" source="Otvhzplql85zx0NSFxn1-16" edge="1">
          <mxGeometry width="50" height="50" relative="1" as="geometry">
            <mxPoint x="-29.29000000000002" y="-220" as="sourcePoint" />
            <mxPoint x="-29" y="-180" as="targetPoint" />
          </mxGeometry>
        </mxCell>
        <mxCell id="Otvhzplql85zx0NSFxn1-22" value="" style="endArrow=classic;html=1;rounded=0;" parent="1" edge="1">
          <mxGeometry width="50" height="50" relative="1" as="geometry">
            <mxPoint x="-30" y="-180" as="sourcePoint" />
            <mxPoint x="-170" y="-180" as="targetPoint" />
          </mxGeometry>
        </mxCell>
        <mxCell id="Otvhzplql85zx0NSFxn1-23" value="5/6 lives" style="rounded=1;whiteSpace=wrap;html=1;" parent="1" vertex="1">
          <mxGeometry x="-290.00067811865483" y="-210" width="120" height="60" as="geometry" />
        </mxCell>
        <mxCell id="Otvhzplql85zx0NSFxn1-24" value="" style="shape=flexArrow;endArrow=classic;html=1;rounded=0;" parent="1" edge="1">
          <mxGeometry width="50" height="50" relative="1" as="geometry">
            <mxPoint x="200" y="-320.4" as="sourcePoint" />
            <mxPoint x="100" y="-320.4" as="targetPoint" />
          </mxGeometry>
        </mxCell>
        <mxCell id="Otvhzplql85zx0NSFxn1-32" value="second char input" style="ellipse;whiteSpace=wrap;html=1;" parent="1" vertex="1">
          <mxGeometry x="-89.29000000000002" y="-40" width="120" height="80" as="geometry" />
        </mxCell>
        <mxCell id="Otvhzplql85zx0NSFxn1-33" value="" style="endArrow=classic;html=1;rounded=0;" parent="1" source="Otvhzplql85zx0NSFxn1-32" target="Otvhzplql85zx0NSFxn1-36" edge="1">
          <mxGeometry width="50" height="50" relative="1" as="geometry">
            <mxPoint x="-160.00067811865478" y="50" as="sourcePoint" />
            <mxPoint x="-160.00067811865478" as="targetPoint" />
          </mxGeometry>
        </mxCell>
        <mxCell id="Otvhzplql85zx0NSFxn1-34" value="True" style="text;html=1;align=center;verticalAlign=middle;resizable=0;points=[];autosize=1;strokeColor=none;fillColor=none;" parent="1" vertex="1">
          <mxGeometry x="-150" y="10" width="50" height="30" as="geometry" />
        </mxCell>
        <mxCell id="Otvhzplql85zx0NSFxn1-35" value="False" style="text;html=1;align=center;verticalAlign=middle;resizable=0;points=[];autosize=1;strokeColor=none;fillColor=none;" parent="1" vertex="1">
          <mxGeometry x="-81" y="150" width="50" height="30" as="geometry" />
        </mxCell>
        <mxCell id="Otvhzplql85zx0NSFxn1-36" value="5/6 lives" style="rounded=1;whiteSpace=wrap;html=1;" parent="1" vertex="1">
          <mxGeometry x="-290.00067811865483" y="-30" width="120" height="60" as="geometry" />
        </mxCell>
        <mxCell id="Otvhzplql85zx0NSFxn1-37" value="" style="endArrow=none;html=1;rounded=0;" parent="1" source="Otvhzplql85zx0NSFxn1-32" edge="1">
          <mxGeometry width="50" height="50" relative="1" as="geometry">
            <mxPoint x="-29.29000000000002" y="90" as="sourcePoint" />
            <mxPoint x="-29" y="130" as="targetPoint" />
          </mxGeometry>
        </mxCell>
        <mxCell id="Otvhzplql85zx0NSFxn1-38" value="" style="endArrow=classic;html=1;rounded=0;" parent="1" edge="1">
          <mxGeometry width="50" height="50" relative="1" as="geometry">
            <mxPoint x="-30" y="130" as="sourcePoint" />
            <mxPoint x="-170" y="130" as="targetPoint" />
          </mxGeometry>
        </mxCell>
        <mxCell id="Otvhzplql85zx0NSFxn1-39" value="4/6 lives" style="rounded=1;whiteSpace=wrap;html=1;" parent="1" vertex="1">
          <mxGeometry x="-290.00067811865483" y="100" width="120" height="60" as="geometry" />
        </mxCell>
        <mxCell id="Otvhzplql85zx0NSFxn1-40" value="" style="shape=flexArrow;endArrow=classic;html=1;rounded=0;" parent="1" edge="1">
          <mxGeometry width="50" height="50" relative="1" as="geometry">
            <mxPoint x="200" y="-0.39999999999997726" as="sourcePoint" />
            <mxPoint x="100" y="-0.39999999999997726" as="targetPoint" />
          </mxGeometry>
        </mxCell>
        <mxCell id="Otvhzplql85zx0NSFxn1-41" value="Third char input" style="ellipse;whiteSpace=wrap;html=1;" parent="1" vertex="1">
          <mxGeometry x="-544.64" y="-380" width="120" height="80" as="geometry" />
        </mxCell>
        <mxCell id="Otvhzplql85zx0NSFxn1-42" value="" style="endArrow=classic;html=1;rounded=0;" parent="1" source="Otvhzplql85zx0NSFxn1-41" target="Otvhzplql85zx0NSFxn1-45" edge="1">
          <mxGeometry width="50" height="50" relative="1" as="geometry">
            <mxPoint x="-615.3506781186549" y="-290" as="sourcePoint" />
            <mxPoint x="-615.3506781186549" y="-340" as="targetPoint" />
          </mxGeometry>
        </mxCell>
        <mxCell id="Otvhzplql85zx0NSFxn1-43" value="True" style="text;html=1;align=center;verticalAlign=middle;resizable=0;points=[];autosize=1;strokeColor=none;fillColor=none;" parent="1" vertex="1">
          <mxGeometry x="-605.35" y="-330" width="50" height="30" as="geometry" />
        </mxCell>
        <mxCell id="Otvhzplql85zx0NSFxn1-44" value="False" style="text;html=1;align=center;verticalAlign=middle;resizable=0;points=[];autosize=1;strokeColor=none;fillColor=none;" parent="1" vertex="1">
          <mxGeometry x="-605.35" y="-260" width="50" height="30" as="geometry" />
        </mxCell>
        <mxCell id="Otvhzplql85zx0NSFxn1-45" value="6/6 lives" style="rounded=1;whiteSpace=wrap;html=1;" parent="1" vertex="1">
          <mxGeometry x="-745.3506781186549" y="-370" width="120" height="60" as="geometry" />
        </mxCell>
        <mxCell id="Otvhzplql85zx0NSFxn1-46" value="" style="endArrow=none;html=1;rounded=0;" parent="1" source="Otvhzplql85zx0NSFxn1-41" edge="1">
          <mxGeometry width="50" height="50" relative="1" as="geometry">
            <mxPoint x="-484.64000000000004" y="-250" as="sourcePoint" />
            <mxPoint x="-484.35" y="-260" as="targetPoint" />
          </mxGeometry>
        </mxCell>
        <mxCell id="Otvhzplql85zx0NSFxn1-47" value="" style="endArrow=classic;html=1;rounded=0;" parent="1" edge="1">
          <mxGeometry width="50" height="50" relative="1" as="geometry">
            <mxPoint x="-485.35" y="-260" as="sourcePoint" />
            <mxPoint x="-625.35" y="-260" as="targetPoint" />
          </mxGeometry>
        </mxCell>
        <mxCell id="Otvhzplql85zx0NSFxn1-48" value="5/6 lives" style="rounded=1;whiteSpace=wrap;html=1;" parent="1" vertex="1">
          <mxGeometry x="-745.3506781186549" y="-290" width="120" height="60" as="geometry" />
        </mxCell>
        <mxCell id="Otvhzplql85zx0NSFxn1-49" value="" style="shape=flexArrow;endArrow=classic;html=1;rounded=0;" parent="1" edge="1">
          <mxGeometry width="50" height="50" relative="1" as="geometry">
            <mxPoint x="-300" y="-310.53" as="sourcePoint" />
            <mxPoint x="-400" y="-310.53" as="targetPoint" />
          </mxGeometry>
        </mxCell>
        <mxCell id="Otvhzplql85zx0NSFxn1-50" value="" style="shape=flexArrow;endArrow=classic;html=1;rounded=0;" parent="1" edge="1">
          <mxGeometry width="50" height="50" relative="1" as="geometry">
            <mxPoint x="-300" y="-180.52999999999997" as="sourcePoint" />
            <mxPoint x="-400" y="-180.52999999999997" as="targetPoint" />
          </mxGeometry>
        </mxCell>
        <mxCell id="Otvhzplql85zx0NSFxn1-51" value="Third char input" style="ellipse;whiteSpace=wrap;html=1;" parent="1" vertex="1">
          <mxGeometry x="-544.64" y="-220" width="120" height="80" as="geometry" />
        </mxCell>
        <mxCell id="Otvhzplql85zx0NSFxn1-52" value="" style="endArrow=classic;html=1;rounded=0;" parent="1" source="Otvhzplql85zx0NSFxn1-51" target="Otvhzplql85zx0NSFxn1-55" edge="1">
          <mxGeometry width="50" height="50" relative="1" as="geometry">
            <mxPoint x="-615.3506781186549" y="-130" as="sourcePoint" />
            <mxPoint x="-615.3506781186549" y="-180" as="targetPoint" />
          </mxGeometry>
        </mxCell>
        <mxCell id="Otvhzplql85zx0NSFxn1-53" value="True" style="text;html=1;align=center;verticalAlign=middle;resizable=0;points=[];autosize=1;strokeColor=none;fillColor=none;" parent="1" vertex="1">
          <mxGeometry x="-605.35" y="-170" width="50" height="30" as="geometry" />
        </mxCell>
        <mxCell id="Otvhzplql85zx0NSFxn1-54" value="False" style="text;html=1;align=center;verticalAlign=middle;resizable=0;points=[];autosize=1;strokeColor=none;fillColor=none;" parent="1" vertex="1">
          <mxGeometry x="-605.35" y="-100" width="50" height="30" as="geometry" />
        </mxCell>
        <mxCell id="Otvhzplql85zx0NSFxn1-55" value="5/6 lives" style="rounded=1;whiteSpace=wrap;html=1;" parent="1" vertex="1">
          <mxGeometry x="-745.3506781186549" y="-210" width="120" height="60" as="geometry" />
        </mxCell>
        <mxCell id="Otvhzplql85zx0NSFxn1-56" value="" style="endArrow=none;html=1;rounded=0;" parent="1" source="Otvhzplql85zx0NSFxn1-51" edge="1">
          <mxGeometry width="50" height="50" relative="1" as="geometry">
            <mxPoint x="-484.64000000000004" y="-90" as="sourcePoint" />
            <mxPoint x="-484.35" y="-100" as="targetPoint" />
          </mxGeometry>
        </mxCell>
        <mxCell id="Otvhzplql85zx0NSFxn1-57" value="" style="endArrow=classic;html=1;rounded=0;" parent="1" edge="1">
          <mxGeometry width="50" height="50" relative="1" as="geometry">
            <mxPoint x="-485.35" y="-100" as="sourcePoint" />
            <mxPoint x="-625.35" y="-100" as="targetPoint" />
          </mxGeometry>
        </mxCell>
        <mxCell id="Otvhzplql85zx0NSFxn1-58" value="4/6 lives" style="rounded=1;whiteSpace=wrap;html=1;" parent="1" vertex="1">
          <mxGeometry x="-745.3506781186549" y="-130" width="120" height="60" as="geometry" />
        </mxCell>
        <mxCell id="Otvhzplql85zx0NSFxn1-59" value="Third char input" style="ellipse;whiteSpace=wrap;html=1;" parent="1" vertex="1">
          <mxGeometry x="-544.64" y="-60" width="121" height="80" as="geometry" />
        </mxCell>
        <mxCell id="Otvhzplql85zx0NSFxn1-60" value="" style="endArrow=classic;html=1;rounded=0;" parent="1" source="Otvhzplql85zx0NSFxn1-59" target="Otvhzplql85zx0NSFxn1-63" edge="1">
          <mxGeometry width="50" height="50" relative="1" as="geometry">
            <mxPoint x="-615.3506781186549" y="30" as="sourcePoint" />
            <mxPoint x="-615.3506781186549" y="-20" as="targetPoint" />
          </mxGeometry>
        </mxCell>
        <mxCell id="Otvhzplql85zx0NSFxn1-61" value="True" style="text;html=1;align=center;verticalAlign=middle;resizable=0;points=[];autosize=1;strokeColor=none;fillColor=none;" parent="1" vertex="1">
          <mxGeometry x="-605.35" y="-10" width="50" height="30" as="geometry" />
        </mxCell>
        <mxCell id="Otvhzplql85zx0NSFxn1-62" value="False" style="text;html=1;align=center;verticalAlign=middle;resizable=0;points=[];autosize=1;strokeColor=none;fillColor=none;" parent="1" vertex="1">
          <mxGeometry x="-605.35" y="60" width="50" height="30" as="geometry" />
        </mxCell>
        <mxCell id="Otvhzplql85zx0NSFxn1-63" value="5/6 lives" style="rounded=1;whiteSpace=wrap;html=1;" parent="1" vertex="1">
          <mxGeometry x="-745.3506781186549" y="-50" width="120" height="60" as="geometry" />
        </mxCell>
        <mxCell id="Otvhzplql85zx0NSFxn1-64" value="" style="endArrow=none;html=1;rounded=0;" parent="1" source="Otvhzplql85zx0NSFxn1-59" edge="1">
          <mxGeometry width="50" height="50" relative="1" as="geometry">
            <mxPoint x="-484.64000000000004" y="70" as="sourcePoint" />
            <mxPoint x="-484.35" y="60" as="targetPoint" />
          </mxGeometry>
        </mxCell>
        <mxCell id="Otvhzplql85zx0NSFxn1-65" value="" style="endArrow=classic;html=1;rounded=0;" parent="1" edge="1">
          <mxGeometry width="50" height="50" relative="1" as="geometry">
            <mxPoint x="-485.35" y="60" as="sourcePoint" />
            <mxPoint x="-625.35" y="60" as="targetPoint" />
          </mxGeometry>
        </mxCell>
        <mxCell id="Otvhzplql85zx0NSFxn1-66" value="4/6 lives" style="rounded=1;whiteSpace=wrap;html=1;" parent="1" vertex="1">
          <mxGeometry x="-745.3506781186549" y="30" width="120" height="60" as="geometry" />
        </mxCell>
        <mxCell id="Otvhzplql85zx0NSFxn1-67" value="Third char input" style="ellipse;whiteSpace=wrap;html=1;" parent="1" vertex="1">
          <mxGeometry x="-544.64" y="100" width="120" height="80" as="geometry" />
        </mxCell>
        <mxCell id="Otvhzplql85zx0NSFxn1-68" value="" style="endArrow=classic;html=1;rounded=0;" parent="1" source="Otvhzplql85zx0NSFxn1-67" target="Otvhzplql85zx0NSFxn1-71" edge="1">
          <mxGeometry width="50" height="50" relative="1" as="geometry">
            <mxPoint x="-615.3506781186549" y="190" as="sourcePoint" />
            <mxPoint x="-615.3506781186549" y="140" as="targetPoint" />
          </mxGeometry>
        </mxCell>
        <mxCell id="Otvhzplql85zx0NSFxn1-69" value="True" style="text;html=1;align=center;verticalAlign=middle;resizable=0;points=[];autosize=1;strokeColor=none;fillColor=none;" parent="1" vertex="1">
          <mxGeometry x="-605.35" y="150" width="50" height="30" as="geometry" />
        </mxCell>
        <mxCell id="Otvhzplql85zx0NSFxn1-70" value="False" style="text;html=1;align=center;verticalAlign=middle;resizable=0;points=[];autosize=1;strokeColor=none;fillColor=none;" parent="1" vertex="1">
          <mxGeometry x="-605.35" y="220" width="50" height="30" as="geometry" />
        </mxCell>
        <mxCell id="Otvhzplql85zx0NSFxn1-71" value="4/6 lives" style="rounded=1;whiteSpace=wrap;html=1;" parent="1" vertex="1">
          <mxGeometry x="-745.3506781186549" y="110" width="120" height="60" as="geometry" />
        </mxCell>
        <mxCell id="Otvhzplql85zx0NSFxn1-72" value="" style="endArrow=none;html=1;rounded=0;" parent="1" source="Otvhzplql85zx0NSFxn1-67" edge="1">
          <mxGeometry width="50" height="50" relative="1" as="geometry">
            <mxPoint x="-484.64000000000004" y="230" as="sourcePoint" />
            <mxPoint x="-484.35" y="220" as="targetPoint" />
          </mxGeometry>
        </mxCell>
        <mxCell id="Otvhzplql85zx0NSFxn1-73" value="" style="endArrow=classic;html=1;rounded=0;" parent="1" edge="1">
          <mxGeometry width="50" height="50" relative="1" as="geometry">
            <mxPoint x="-485.35" y="220" as="sourcePoint" />
            <mxPoint x="-625.35" y="220" as="targetPoint" />
          </mxGeometry>
        </mxCell>
        <mxCell id="Otvhzplql85zx0NSFxn1-74" value="3/6 lives" style="rounded=1;whiteSpace=wrap;html=1;" parent="1" vertex="1">
          <mxGeometry x="-745.3506781186549" y="190" width="120" height="60" as="geometry" />
        </mxCell>
        <mxCell id="Otvhzplql85zx0NSFxn1-75" value="" style="shape=flexArrow;endArrow=classic;html=1;rounded=0;" parent="1" edge="1">
          <mxGeometry width="50" height="50" relative="1" as="geometry">
            <mxPoint x="-300" y="-1.049999999999983" as="sourcePoint" />
            <mxPoint x="-400" y="-1.049999999999983" as="targetPoint" />
          </mxGeometry>
        </mxCell>
        <mxCell id="Otvhzplql85zx0NSFxn1-76" value="" style="shape=flexArrow;endArrow=classic;html=1;rounded=0;" parent="1" edge="1">
          <mxGeometry width="50" height="50" relative="1" as="geometry">
            <mxPoint x="-300" y="128.95000000000002" as="sourcePoint" />
            <mxPoint x="-400" y="128.95000000000002" as="targetPoint" />
          </mxGeometry>
        </mxCell>
        <mxCell id="Otvhzplql85zx0NSFxn1-78" value="" style="shape=flexArrow;endArrow=classic;html=1;rounded=0;" parent="1" edge="1">
          <mxGeometry width="50" height="50" relative="1" as="geometry">
            <mxPoint x="-760" y="-20.399999999999984" as="sourcePoint" />
            <mxPoint x="-860" y="-20.399999999999984" as="targetPoint" />
          </mxGeometry>
        </mxCell>
        <mxCell id="Otvhzplql85zx0NSFxn1-79" value="" style="shape=flexArrow;endArrow=classic;html=1;rounded=0;" parent="1" edge="1">
          <mxGeometry width="50" height="50" relative="1" as="geometry">
            <mxPoint x="-760" y="60.000000000000014" as="sourcePoint" />
            <mxPoint x="-860" y="60.000000000000014" as="targetPoint" />
          </mxGeometry>
        </mxCell>
        <mxCell id="Otvhzplql85zx0NSFxn1-80" value="" style="shape=flexArrow;endArrow=classic;html=1;rounded=0;" parent="1" edge="1">
          <mxGeometry width="50" height="50" relative="1" as="geometry">
            <mxPoint x="-760" y="138.8" as="sourcePoint" />
            <mxPoint x="-860" y="138.8" as="targetPoint" />
          </mxGeometry>
        </mxCell>
        <mxCell id="Otvhzplql85zx0NSFxn1-81" value="" style="shape=flexArrow;endArrow=classic;html=1;rounded=0;" parent="1" edge="1">
          <mxGeometry width="50" height="50" relative="1" as="geometry">
            <mxPoint x="-760" y="219.2" as="sourcePoint" />
            <mxPoint x="-860" y="219.2" as="targetPoint" />
          </mxGeometry>
        </mxCell>
        <mxCell id="Otvhzplql85zx0NSFxn1-82" value="" style="shape=flexArrow;endArrow=classic;html=1;rounded=0;" parent="1" edge="1">
          <mxGeometry width="50" height="50" relative="1" as="geometry">
            <mxPoint x="-760" y="-340.4" as="sourcePoint" />
            <mxPoint x="-860" y="-340.4" as="targetPoint" />
          </mxGeometry>
        </mxCell>
        <mxCell id="Otvhzplql85zx0NSFxn1-83" value="" style="shape=flexArrow;endArrow=classic;html=1;rounded=0;" parent="1" edge="1">
          <mxGeometry width="50" height="50" relative="1" as="geometry">
            <mxPoint x="-760" y="-260" as="sourcePoint" />
            <mxPoint x="-860" y="-260" as="targetPoint" />
          </mxGeometry>
        </mxCell>
        <mxCell id="Otvhzplql85zx0NSFxn1-84" value="" style="shape=flexArrow;endArrow=classic;html=1;rounded=0;" parent="1" edge="1">
          <mxGeometry width="50" height="50" relative="1" as="geometry">
            <mxPoint x="-760" y="-181.2" as="sourcePoint" />
            <mxPoint x="-860" y="-181.2" as="targetPoint" />
          </mxGeometry>
        </mxCell>
        <mxCell id="Otvhzplql85zx0NSFxn1-85" value="" style="shape=flexArrow;endArrow=classic;html=1;rounded=0;" parent="1" edge="1">
          <mxGeometry width="50" height="50" relative="1" as="geometry">
            <mxPoint x="-760" y="-100.80000000000001" as="sourcePoint" />
            <mxPoint x="-860" y="-100.80000000000001" as="targetPoint" />
          </mxGeometry>
        </mxCell>
        <mxCell id="Otvhzplql85zx0NSFxn1-106" style="edgeStyle=orthogonalEdgeStyle;rounded=0;orthogonalLoop=1;jettySize=auto;html=1;entryX=1;entryY=0.75;entryDx=0;entryDy=0;" parent="1" source="Otvhzplql85zx0NSFxn1-86" target="Otvhzplql85zx0NSFxn1-93" edge="1">
          <mxGeometry relative="1" as="geometry" />
        </mxCell>
        <mxCell id="Otvhzplql85zx0NSFxn1-86" value="Fourth char input" style="ellipse;whiteSpace=wrap;html=1;" parent="1" vertex="1">
          <mxGeometry x="-979.29" y="-370" width="99.29" height="45" as="geometry" />
        </mxCell>
        <mxCell id="Otvhzplql85zx0NSFxn1-87" value="" style="endArrow=classic;html=1;rounded=0;" parent="1" source="Otvhzplql85zx0NSFxn1-86" target="Otvhzplql85zx0NSFxn1-90" edge="1">
          <mxGeometry width="50" height="50" relative="1" as="geometry">
            <mxPoint x="-1050.0006781186548" y="-280" as="sourcePoint" />
            <mxPoint x="-1050.0006781186548" y="-330" as="targetPoint" />
          </mxGeometry>
        </mxCell>
        <mxCell id="Otvhzplql85zx0NSFxn1-203" style="edgeStyle=orthogonalEdgeStyle;rounded=0;orthogonalLoop=1;jettySize=auto;html=1;entryX=1;entryY=0.5;entryDx=0;entryDy=0;" parent="1" source="Otvhzplql85zx0NSFxn1-90" target="Otvhzplql85zx0NSFxn1-159" edge="1">
          <mxGeometry relative="1" as="geometry" />
        </mxCell>
        <mxCell id="Otvhzplql85zx0NSFxn1-90" value="6/6 lives" style="rounded=1;whiteSpace=wrap;html=1;" parent="1" vertex="1">
          <mxGeometry x="-1180" y="-360" width="120" height="20" as="geometry" />
        </mxCell>
        <mxCell id="Otvhzplql85zx0NSFxn1-93" value="5/6 lives" style="rounded=1;whiteSpace=wrap;html=1;" parent="1" vertex="1">
          <mxGeometry x="-1180" y="-320" width="120" height="20" as="geometry" />
        </mxCell>
        <mxCell id="Otvhzplql85zx0NSFxn1-107" style="edgeStyle=orthogonalEdgeStyle;rounded=0;orthogonalLoop=1;jettySize=auto;html=1;entryX=1;entryY=0.75;entryDx=0;entryDy=0;" parent="1" source="Otvhzplql85zx0NSFxn1-108" target="Otvhzplql85zx0NSFxn1-111" edge="1">
          <mxGeometry relative="1" as="geometry" />
        </mxCell>
        <mxCell id="Otvhzplql85zx0NSFxn1-108" value="Fourth char input" style="ellipse;whiteSpace=wrap;html=1;" parent="1" vertex="1">
          <mxGeometry x="-979.29" y="-295" width="99.29" height="45" as="geometry" />
        </mxCell>
        <mxCell id="Otvhzplql85zx0NSFxn1-109" value="" style="endArrow=classic;html=1;rounded=0;" parent="1" source="Otvhzplql85zx0NSFxn1-108" target="Otvhzplql85zx0NSFxn1-110" edge="1">
          <mxGeometry width="50" height="50" relative="1" as="geometry">
            <mxPoint x="-1050.0006781186548" y="-205" as="sourcePoint" />
            <mxPoint x="-1050.0006781186548" y="-255" as="targetPoint" />
          </mxGeometry>
        </mxCell>
        <mxCell id="Otvhzplql85zx0NSFxn1-110" value="5/6 lives" style="rounded=1;whiteSpace=wrap;html=1;" parent="1" vertex="1">
          <mxGeometry x="-1180" y="-285" width="120" height="20" as="geometry" />
        </mxCell>
        <mxCell id="Otvhzplql85zx0NSFxn1-111" value="4/6 lives" style="rounded=1;whiteSpace=wrap;html=1;" parent="1" vertex="1">
          <mxGeometry x="-1180" y="-245" width="120" height="20" as="geometry" />
        </mxCell>
        <mxCell id="Otvhzplql85zx0NSFxn1-112" style="edgeStyle=orthogonalEdgeStyle;rounded=0;orthogonalLoop=1;jettySize=auto;html=1;entryX=1;entryY=0.75;entryDx=0;entryDy=0;" parent="1" source="Otvhzplql85zx0NSFxn1-113" target="Otvhzplql85zx0NSFxn1-116" edge="1">
          <mxGeometry relative="1" as="geometry" />
        </mxCell>
        <mxCell id="Otvhzplql85zx0NSFxn1-113" value="Fourth char input" style="ellipse;whiteSpace=wrap;html=1;" parent="1" vertex="1">
          <mxGeometry x="-979.29" y="-210" width="99.29" height="45" as="geometry" />
        </mxCell>
        <mxCell id="Otvhzplql85zx0NSFxn1-114" value="" style="endArrow=classic;html=1;rounded=0;" parent="1" source="Otvhzplql85zx0NSFxn1-113" target="Otvhzplql85zx0NSFxn1-115" edge="1">
          <mxGeometry width="50" height="50" relative="1" as="geometry">
            <mxPoint x="-1050.0006781186548" y="-120" as="sourcePoint" />
            <mxPoint x="-1050.0006781186548" y="-170" as="targetPoint" />
          </mxGeometry>
        </mxCell>
        <mxCell id="Otvhzplql85zx0NSFxn1-115" value="5/6 lives" style="rounded=1;whiteSpace=wrap;html=1;" parent="1" vertex="1">
          <mxGeometry x="-1180" y="-200" width="120" height="20" as="geometry" />
        </mxCell>
        <mxCell id="Otvhzplql85zx0NSFxn1-116" value="4/6 lives" style="rounded=1;whiteSpace=wrap;html=1;" parent="1" vertex="1">
          <mxGeometry x="-1180" y="-160" width="120" height="20" as="geometry" />
        </mxCell>
        <mxCell id="Otvhzplql85zx0NSFxn1-117" style="edgeStyle=orthogonalEdgeStyle;rounded=0;orthogonalLoop=1;jettySize=auto;html=1;entryX=1;entryY=0.75;entryDx=0;entryDy=0;" parent="1" source="Otvhzplql85zx0NSFxn1-118" target="Otvhzplql85zx0NSFxn1-121" edge="1">
          <mxGeometry relative="1" as="geometry" />
        </mxCell>
        <mxCell id="Otvhzplql85zx0NSFxn1-118" value="Fourth char input" style="ellipse;whiteSpace=wrap;html=1;" parent="1" vertex="1">
          <mxGeometry x="-979.29" y="-135" width="99.29" height="45" as="geometry" />
        </mxCell>
        <mxCell id="Otvhzplql85zx0NSFxn1-119" value="" style="endArrow=classic;html=1;rounded=0;" parent="1" source="Otvhzplql85zx0NSFxn1-118" target="Otvhzplql85zx0NSFxn1-120" edge="1">
          <mxGeometry width="50" height="50" relative="1" as="geometry">
            <mxPoint x="-1050.0006781186548" y="-45" as="sourcePoint" />
            <mxPoint x="-1050.0006781186548" y="-95" as="targetPoint" />
          </mxGeometry>
        </mxCell>
        <mxCell id="Otvhzplql85zx0NSFxn1-120" value="4/6 lives" style="rounded=1;whiteSpace=wrap;html=1;" parent="1" vertex="1">
          <mxGeometry x="-1180" y="-125" width="120" height="20" as="geometry" />
        </mxCell>
        <mxCell id="Otvhzplql85zx0NSFxn1-121" value="3/6 lives" style="rounded=1;whiteSpace=wrap;html=1;" parent="1" vertex="1">
          <mxGeometry x="-1180" y="-85" width="120" height="20" as="geometry" />
        </mxCell>
        <mxCell id="Otvhzplql85zx0NSFxn1-122" style="edgeStyle=orthogonalEdgeStyle;rounded=0;orthogonalLoop=1;jettySize=auto;html=1;entryX=1;entryY=0.75;entryDx=0;entryDy=0;" parent="1" source="Otvhzplql85zx0NSFxn1-123" target="Otvhzplql85zx0NSFxn1-126" edge="1">
          <mxGeometry relative="1" as="geometry" />
        </mxCell>
        <mxCell id="Otvhzplql85zx0NSFxn1-123" value="Fourth char input" style="ellipse;whiteSpace=wrap;html=1;" parent="1" vertex="1">
          <mxGeometry x="-979.29" y="-40" width="99.29" height="45" as="geometry" />
        </mxCell>
        <mxCell id="Otvhzplql85zx0NSFxn1-124" value="" style="endArrow=classic;html=1;rounded=0;" parent="1" source="Otvhzplql85zx0NSFxn1-123" target="Otvhzplql85zx0NSFxn1-125" edge="1">
          <mxGeometry width="50" height="50" relative="1" as="geometry">
            <mxPoint x="-1050.0006781186548" y="50" as="sourcePoint" />
            <mxPoint x="-1050.0006781186548" as="targetPoint" />
          </mxGeometry>
        </mxCell>
        <mxCell id="Otvhzplql85zx0NSFxn1-125" value="5/6 lives" style="rounded=1;whiteSpace=wrap;html=1;" parent="1" vertex="1">
          <mxGeometry x="-1180" y="-30" width="120" height="20" as="geometry" />
        </mxCell>
        <mxCell id="Otvhzplql85zx0NSFxn1-126" value="4/6 lives" style="rounded=1;whiteSpace=wrap;html=1;" parent="1" vertex="1">
          <mxGeometry x="-1180" y="10" width="120" height="20" as="geometry" />
        </mxCell>
        <mxCell id="Otvhzplql85zx0NSFxn1-127" style="edgeStyle=orthogonalEdgeStyle;rounded=0;orthogonalLoop=1;jettySize=auto;html=1;entryX=1;entryY=0.75;entryDx=0;entryDy=0;" parent="1" source="Otvhzplql85zx0NSFxn1-128" target="Otvhzplql85zx0NSFxn1-131" edge="1">
          <mxGeometry relative="1" as="geometry" />
        </mxCell>
        <mxCell id="Otvhzplql85zx0NSFxn1-128" value="Fourth char input" style="ellipse;whiteSpace=wrap;html=1;" parent="1" vertex="1">
          <mxGeometry x="-979.29" y="35" width="99.29" height="45" as="geometry" />
        </mxCell>
        <mxCell id="Otvhzplql85zx0NSFxn1-129" value="" style="endArrow=classic;html=1;rounded=0;" parent="1" source="Otvhzplql85zx0NSFxn1-128" target="Otvhzplql85zx0NSFxn1-130" edge="1">
          <mxGeometry width="50" height="50" relative="1" as="geometry">
            <mxPoint x="-1050.0006781186548" y="125" as="sourcePoint" />
            <mxPoint x="-1050.0006781186548" y="75" as="targetPoint" />
          </mxGeometry>
        </mxCell>
        <mxCell id="Otvhzplql85zx0NSFxn1-130" value="4/6 lives" style="rounded=1;whiteSpace=wrap;html=1;" parent="1" vertex="1">
          <mxGeometry x="-1180" y="45" width="120" height="20" as="geometry" />
        </mxCell>
        <mxCell id="Otvhzplql85zx0NSFxn1-131" value="3/6 lives" style="rounded=1;whiteSpace=wrap;html=1;" parent="1" vertex="1">
          <mxGeometry x="-1180" y="85" width="120" height="20" as="geometry" />
        </mxCell>
        <mxCell id="Otvhzplql85zx0NSFxn1-132" style="edgeStyle=orthogonalEdgeStyle;rounded=0;orthogonalLoop=1;jettySize=auto;html=1;entryX=1;entryY=0.75;entryDx=0;entryDy=0;" parent="1" source="Otvhzplql85zx0NSFxn1-133" target="Otvhzplql85zx0NSFxn1-136" edge="1">
          <mxGeometry relative="1" as="geometry" />
        </mxCell>
        <mxCell id="Otvhzplql85zx0NSFxn1-133" value="Fourth char input" style="ellipse;whiteSpace=wrap;html=1;" parent="1" vertex="1">
          <mxGeometry x="-979.29" y="120" width="99.29" height="45" as="geometry" />
        </mxCell>
        <mxCell id="Otvhzplql85zx0NSFxn1-134" value="" style="endArrow=classic;html=1;rounded=0;" parent="1" source="Otvhzplql85zx0NSFxn1-133" target="Otvhzplql85zx0NSFxn1-135" edge="1">
          <mxGeometry width="50" height="50" relative="1" as="geometry">
            <mxPoint x="-1050.0006781186548" y="210" as="sourcePoint" />
            <mxPoint x="-1050.0006781186548" y="160" as="targetPoint" />
          </mxGeometry>
        </mxCell>
        <mxCell id="Otvhzplql85zx0NSFxn1-135" value="4/6 lives" style="rounded=1;whiteSpace=wrap;html=1;" parent="1" vertex="1">
          <mxGeometry x="-1180" y="130" width="120" height="20" as="geometry" />
        </mxCell>
        <mxCell id="Otvhzplql85zx0NSFxn1-136" value="3/6 lives" style="rounded=1;whiteSpace=wrap;html=1;" parent="1" vertex="1">
          <mxGeometry x="-1180" y="170" width="120" height="20" as="geometry" />
        </mxCell>
        <mxCell id="Otvhzplql85zx0NSFxn1-137" style="edgeStyle=orthogonalEdgeStyle;rounded=0;orthogonalLoop=1;jettySize=auto;html=1;entryX=1;entryY=0.75;entryDx=0;entryDy=0;" parent="1" source="Otvhzplql85zx0NSFxn1-138" target="Otvhzplql85zx0NSFxn1-141" edge="1">
          <mxGeometry relative="1" as="geometry" />
        </mxCell>
        <mxCell id="Otvhzplql85zx0NSFxn1-138" value="Fourth char input" style="ellipse;whiteSpace=wrap;html=1;" parent="1" vertex="1">
          <mxGeometry x="-979.29" y="195" width="99.29" height="45" as="geometry" />
        </mxCell>
        <mxCell id="Otvhzplql85zx0NSFxn1-139" value="" style="endArrow=classic;html=1;rounded=0;" parent="1" source="Otvhzplql85zx0NSFxn1-138" target="Otvhzplql85zx0NSFxn1-140" edge="1">
          <mxGeometry width="50" height="50" relative="1" as="geometry">
            <mxPoint x="-1050.0006781186548" y="285" as="sourcePoint" />
            <mxPoint x="-1050.0006781186548" y="235" as="targetPoint" />
          </mxGeometry>
        </mxCell>
        <mxCell id="Otvhzplql85zx0NSFxn1-140" value="3/6 lives" style="rounded=1;whiteSpace=wrap;html=1;" parent="1" vertex="1">
          <mxGeometry x="-1180" y="205" width="120" height="20" as="geometry" />
        </mxCell>
        <mxCell id="Otvhzplql85zx0NSFxn1-141" value="2/6 lives" style="rounded=1;whiteSpace=wrap;html=1;" parent="1" vertex="1">
          <mxGeometry x="-1180" y="245" width="120" height="20" as="geometry" />
        </mxCell>
        <mxCell id="Otvhzplql85zx0NSFxn1-165" style="edgeStyle=orthogonalEdgeStyle;rounded=0;orthogonalLoop=1;jettySize=auto;html=1;entryX=1;entryY=0.5;entryDx=0;entryDy=0;" parent="1" source="Otvhzplql85zx0NSFxn1-159" target="Otvhzplql85zx0NSFxn1-161" edge="1">
          <mxGeometry relative="1" as="geometry" />
        </mxCell>
        <mxCell id="Otvhzplql85zx0NSFxn1-166" style="edgeStyle=orthogonalEdgeStyle;rounded=0;orthogonalLoop=1;jettySize=auto;html=1;entryX=1;entryY=0.75;entryDx=0;entryDy=0;" parent="1" source="Otvhzplql85zx0NSFxn1-159" target="Otvhzplql85zx0NSFxn1-162" edge="1">
          <mxGeometry relative="1" as="geometry" />
        </mxCell>
        <mxCell id="Otvhzplql85zx0NSFxn1-159" value="Fifth char input" style="ellipse;whiteSpace=wrap;html=1;" parent="1" vertex="1">
          <mxGeometry x="-1300" y="-367.5" width="79.29" height="35" as="geometry" />
        </mxCell>
        <mxCell id="Otvhzplql85zx0NSFxn1-161" value="6/6 lives" style="rounded=1;whiteSpace=wrap;html=1;" parent="1" vertex="1">
          <mxGeometry x="-1520" y="-367.5" width="120" height="15" as="geometry" />
        </mxCell>
        <mxCell id="Otvhzplql85zx0NSFxn1-162" value="5/6 lives" style="rounded=1;whiteSpace=wrap;html=1;" parent="1" vertex="1">
          <mxGeometry x="-1520" y="-347.5" width="120" height="15" as="geometry" />
        </mxCell>
        <mxCell id="Otvhzplql85zx0NSFxn1-204" style="edgeStyle=orthogonalEdgeStyle;rounded=0;orthogonalLoop=1;jettySize=auto;html=1;entryX=1;entryY=0.5;entryDx=0;entryDy=0;" parent="1" target="Otvhzplql85zx0NSFxn1-207" edge="1">
          <mxGeometry relative="1" as="geometry">
            <mxPoint x="-1180" y="-307.5" as="sourcePoint" />
          </mxGeometry>
        </mxCell>
        <mxCell id="Otvhzplql85zx0NSFxn1-205" style="edgeStyle=orthogonalEdgeStyle;rounded=0;orthogonalLoop=1;jettySize=auto;html=1;entryX=1;entryY=0.5;entryDx=0;entryDy=0;" parent="1" source="Otvhzplql85zx0NSFxn1-207" target="Otvhzplql85zx0NSFxn1-208" edge="1">
          <mxGeometry relative="1" as="geometry" />
        </mxCell>
        <mxCell id="Otvhzplql85zx0NSFxn1-206" style="edgeStyle=orthogonalEdgeStyle;rounded=0;orthogonalLoop=1;jettySize=auto;html=1;entryX=1;entryY=0.75;entryDx=0;entryDy=0;" parent="1" source="Otvhzplql85zx0NSFxn1-207" target="Otvhzplql85zx0NSFxn1-209" edge="1">
          <mxGeometry relative="1" as="geometry" />
        </mxCell>
        <mxCell id="Otvhzplql85zx0NSFxn1-207" value="Fifth char input" style="ellipse;whiteSpace=wrap;html=1;" parent="1" vertex="1">
          <mxGeometry x="-1300" y="-325" width="79.29" height="35" as="geometry" />
        </mxCell>
        <mxCell id="Otvhzplql85zx0NSFxn1-208" value="5/6 lives" style="rounded=1;whiteSpace=wrap;html=1;" parent="1" vertex="1">
          <mxGeometry x="-1520" y="-325" width="120" height="15" as="geometry" />
        </mxCell>
        <mxCell id="Otvhzplql85zx0NSFxn1-209" value="4/6 lives" style="rounded=1;whiteSpace=wrap;html=1;" parent="1" vertex="1">
          <mxGeometry x="-1520" y="-305" width="120" height="15" as="geometry" />
        </mxCell>
        <mxCell id="Otvhzplql85zx0NSFxn1-210" style="edgeStyle=orthogonalEdgeStyle;rounded=0;orthogonalLoop=1;jettySize=auto;html=1;entryX=1;entryY=0.5;entryDx=0;entryDy=0;" parent="1" target="Otvhzplql85zx0NSFxn1-213" edge="1">
          <mxGeometry relative="1" as="geometry">
            <mxPoint x="-1180" y="-272.5" as="sourcePoint" />
          </mxGeometry>
        </mxCell>
        <mxCell id="Otvhzplql85zx0NSFxn1-211" style="edgeStyle=orthogonalEdgeStyle;rounded=0;orthogonalLoop=1;jettySize=auto;html=1;entryX=1;entryY=0.5;entryDx=0;entryDy=0;" parent="1" source="Otvhzplql85zx0NSFxn1-213" target="Otvhzplql85zx0NSFxn1-214" edge="1">
          <mxGeometry relative="1" as="geometry" />
        </mxCell>
        <mxCell id="Otvhzplql85zx0NSFxn1-212" style="edgeStyle=orthogonalEdgeStyle;rounded=0;orthogonalLoop=1;jettySize=auto;html=1;entryX=1;entryY=0.75;entryDx=0;entryDy=0;" parent="1" source="Otvhzplql85zx0NSFxn1-213" target="Otvhzplql85zx0NSFxn1-215" edge="1">
          <mxGeometry relative="1" as="geometry" />
        </mxCell>
        <mxCell id="Otvhzplql85zx0NSFxn1-213" value="Fifth char input" style="ellipse;whiteSpace=wrap;html=1;" parent="1" vertex="1">
          <mxGeometry x="-1300" y="-290" width="79.29" height="35" as="geometry" />
        </mxCell>
        <mxCell id="Otvhzplql85zx0NSFxn1-214" value="6/6 lives" style="rounded=1;whiteSpace=wrap;html=1;" parent="1" vertex="1">
          <mxGeometry x="-1520" y="-290" width="120" height="15" as="geometry" />
        </mxCell>
        <mxCell id="Otvhzplql85zx0NSFxn1-215" value="5/6 lives" style="rounded=1;whiteSpace=wrap;html=1;" parent="1" vertex="1">
          <mxGeometry x="-1520" y="-270" width="120" height="15" as="geometry" />
        </mxCell>
        <mxCell id="Otvhzplql85zx0NSFxn1-216" style="edgeStyle=orthogonalEdgeStyle;rounded=0;orthogonalLoop=1;jettySize=auto;html=1;entryX=1;entryY=0.5;entryDx=0;entryDy=0;" parent="1" target="Otvhzplql85zx0NSFxn1-219" edge="1">
          <mxGeometry relative="1" as="geometry">
            <mxPoint x="-1180" y="-230" as="sourcePoint" />
          </mxGeometry>
        </mxCell>
        <mxCell id="Otvhzplql85zx0NSFxn1-217" style="edgeStyle=orthogonalEdgeStyle;rounded=0;orthogonalLoop=1;jettySize=auto;html=1;entryX=1;entryY=0.5;entryDx=0;entryDy=0;" parent="1" source="Otvhzplql85zx0NSFxn1-219" target="Otvhzplql85zx0NSFxn1-220" edge="1">
          <mxGeometry relative="1" as="geometry" />
        </mxCell>
        <mxCell id="Otvhzplql85zx0NSFxn1-218" style="edgeStyle=orthogonalEdgeStyle;rounded=0;orthogonalLoop=1;jettySize=auto;html=1;entryX=1;entryY=0.75;entryDx=0;entryDy=0;" parent="1" source="Otvhzplql85zx0NSFxn1-219" target="Otvhzplql85zx0NSFxn1-221" edge="1">
          <mxGeometry relative="1" as="geometry" />
        </mxCell>
        <mxCell id="Otvhzplql85zx0NSFxn1-219" value="Fifth char input" style="ellipse;whiteSpace=wrap;html=1;" parent="1" vertex="1">
          <mxGeometry x="-1300" y="-247.5" width="79.29" height="35" as="geometry" />
        </mxCell>
        <mxCell id="Otvhzplql85zx0NSFxn1-220" value="6/6 lives" style="rounded=1;whiteSpace=wrap;html=1;" parent="1" vertex="1">
          <mxGeometry x="-1520" y="-247.5" width="120" height="15" as="geometry" />
        </mxCell>
        <mxCell id="Otvhzplql85zx0NSFxn1-221" value="5/6 lives" style="rounded=1;whiteSpace=wrap;html=1;" parent="1" vertex="1">
          <mxGeometry x="-1520" y="-227.5" width="120" height="15" as="geometry" />
        </mxCell>
        <mxCell id="Otvhzplql85zx0NSFxn1-222" style="edgeStyle=orthogonalEdgeStyle;rounded=0;orthogonalLoop=1;jettySize=auto;html=1;entryX=1;entryY=0.5;entryDx=0;entryDy=0;" parent="1" target="Otvhzplql85zx0NSFxn1-225" edge="1">
          <mxGeometry relative="1" as="geometry">
            <mxPoint x="-1180" y="-187.5" as="sourcePoint" />
          </mxGeometry>
        </mxCell>
        <mxCell id="Otvhzplql85zx0NSFxn1-223" style="edgeStyle=orthogonalEdgeStyle;rounded=0;orthogonalLoop=1;jettySize=auto;html=1;entryX=1;entryY=0.5;entryDx=0;entryDy=0;" parent="1" source="Otvhzplql85zx0NSFxn1-225" target="Otvhzplql85zx0NSFxn1-226" edge="1">
          <mxGeometry relative="1" as="geometry" />
        </mxCell>
        <mxCell id="Otvhzplql85zx0NSFxn1-224" style="edgeStyle=orthogonalEdgeStyle;rounded=0;orthogonalLoop=1;jettySize=auto;html=1;entryX=1;entryY=0.75;entryDx=0;entryDy=0;" parent="1" source="Otvhzplql85zx0NSFxn1-225" target="Otvhzplql85zx0NSFxn1-227" edge="1">
          <mxGeometry relative="1" as="geometry" />
        </mxCell>
        <mxCell id="Otvhzplql85zx0NSFxn1-225" value="Fifth char input" style="ellipse;whiteSpace=wrap;html=1;" parent="1" vertex="1">
          <mxGeometry x="-1300" y="-205" width="79.29" height="35" as="geometry" />
        </mxCell>
        <mxCell id="Otvhzplql85zx0NSFxn1-226" value="6/6 lives" style="rounded=1;whiteSpace=wrap;html=1;" parent="1" vertex="1">
          <mxGeometry x="-1520" y="-205" width="120" height="15" as="geometry" />
        </mxCell>
        <mxCell id="Otvhzplql85zx0NSFxn1-227" value="5/6 lives" style="rounded=1;whiteSpace=wrap;html=1;" parent="1" vertex="1">
          <mxGeometry x="-1520" y="-185" width="120" height="15" as="geometry" />
        </mxCell>
        <mxCell id="Otvhzplql85zx0NSFxn1-228" style="edgeStyle=orthogonalEdgeStyle;rounded=0;orthogonalLoop=1;jettySize=auto;html=1;entryX=1;entryY=0.5;entryDx=0;entryDy=0;" parent="1" target="Otvhzplql85zx0NSFxn1-231" edge="1">
          <mxGeometry relative="1" as="geometry">
            <mxPoint x="-1180" y="-145" as="sourcePoint" />
          </mxGeometry>
        </mxCell>
        <mxCell id="Otvhzplql85zx0NSFxn1-229" style="edgeStyle=orthogonalEdgeStyle;rounded=0;orthogonalLoop=1;jettySize=auto;html=1;entryX=1;entryY=0.5;entryDx=0;entryDy=0;" parent="1" source="Otvhzplql85zx0NSFxn1-231" target="Otvhzplql85zx0NSFxn1-232" edge="1">
          <mxGeometry relative="1" as="geometry" />
        </mxCell>
        <mxCell id="Otvhzplql85zx0NSFxn1-230" style="edgeStyle=orthogonalEdgeStyle;rounded=0;orthogonalLoop=1;jettySize=auto;html=1;entryX=1;entryY=0.75;entryDx=0;entryDy=0;" parent="1" source="Otvhzplql85zx0NSFxn1-231" target="Otvhzplql85zx0NSFxn1-233" edge="1">
          <mxGeometry relative="1" as="geometry" />
        </mxCell>
        <mxCell id="Otvhzplql85zx0NSFxn1-231" value="Fifth char input" style="ellipse;whiteSpace=wrap;html=1;" parent="1" vertex="1">
          <mxGeometry x="-1300" y="-162.5" width="79.29" height="35" as="geometry" />
        </mxCell>
        <mxCell id="Otvhzplql85zx0NSFxn1-232" value="6/6 lives" style="rounded=1;whiteSpace=wrap;html=1;" parent="1" vertex="1">
          <mxGeometry x="-1520" y="-162.5" width="120" height="15" as="geometry" />
        </mxCell>
        <mxCell id="Otvhzplql85zx0NSFxn1-233" value="5/6 lives" style="rounded=1;whiteSpace=wrap;html=1;" parent="1" vertex="1">
          <mxGeometry x="-1520" y="-142.5" width="120" height="15" as="geometry" />
        </mxCell>
        <mxCell id="Otvhzplql85zx0NSFxn1-234" style="edgeStyle=orthogonalEdgeStyle;rounded=0;orthogonalLoop=1;jettySize=auto;html=1;entryX=1;entryY=0.5;entryDx=0;entryDy=0;" parent="1" target="Otvhzplql85zx0NSFxn1-237" edge="1">
          <mxGeometry relative="1" as="geometry">
            <mxPoint x="-1180" y="-110" as="sourcePoint" />
          </mxGeometry>
        </mxCell>
        <mxCell id="Otvhzplql85zx0NSFxn1-235" style="edgeStyle=orthogonalEdgeStyle;rounded=0;orthogonalLoop=1;jettySize=auto;html=1;entryX=1;entryY=0.5;entryDx=0;entryDy=0;" parent="1" source="Otvhzplql85zx0NSFxn1-237" target="Otvhzplql85zx0NSFxn1-238" edge="1">
          <mxGeometry relative="1" as="geometry" />
        </mxCell>
        <mxCell id="Otvhzplql85zx0NSFxn1-236" style="edgeStyle=orthogonalEdgeStyle;rounded=0;orthogonalLoop=1;jettySize=auto;html=1;entryX=1;entryY=0.75;entryDx=0;entryDy=0;" parent="1" source="Otvhzplql85zx0NSFxn1-237" target="Otvhzplql85zx0NSFxn1-239" edge="1">
          <mxGeometry relative="1" as="geometry" />
        </mxCell>
        <mxCell id="Otvhzplql85zx0NSFxn1-237" value="Fifth char input" style="ellipse;whiteSpace=wrap;html=1;" parent="1" vertex="1">
          <mxGeometry x="-1300" y="-127.5" width="79.29" height="35" as="geometry" />
        </mxCell>
        <mxCell id="Otvhzplql85zx0NSFxn1-238" value="6/6 lives" style="rounded=1;whiteSpace=wrap;html=1;" parent="1" vertex="1">
          <mxGeometry x="-1520" y="-127.5" width="120" height="15" as="geometry" />
        </mxCell>
        <mxCell id="Otvhzplql85zx0NSFxn1-239" value="5/6 lives" style="rounded=1;whiteSpace=wrap;html=1;" parent="1" vertex="1">
          <mxGeometry x="-1520" y="-107.5" width="120" height="15" as="geometry" />
        </mxCell>
        <mxCell id="Otvhzplql85zx0NSFxn1-240" style="edgeStyle=orthogonalEdgeStyle;rounded=0;orthogonalLoop=1;jettySize=auto;html=1;entryX=1;entryY=0.5;entryDx=0;entryDy=0;" parent="1" target="Otvhzplql85zx0NSFxn1-243" edge="1">
          <mxGeometry relative="1" as="geometry">
            <mxPoint x="-1180" y="-67.5" as="sourcePoint" />
          </mxGeometry>
        </mxCell>
        <mxCell id="Otvhzplql85zx0NSFxn1-241" style="edgeStyle=orthogonalEdgeStyle;rounded=0;orthogonalLoop=1;jettySize=auto;html=1;entryX=1;entryY=0.5;entryDx=0;entryDy=0;" parent="1" source="Otvhzplql85zx0NSFxn1-243" target="Otvhzplql85zx0NSFxn1-244" edge="1">
          <mxGeometry relative="1" as="geometry" />
        </mxCell>
        <mxCell id="Otvhzplql85zx0NSFxn1-242" style="edgeStyle=orthogonalEdgeStyle;rounded=0;orthogonalLoop=1;jettySize=auto;html=1;entryX=1;entryY=0.75;entryDx=0;entryDy=0;" parent="1" source="Otvhzplql85zx0NSFxn1-243" target="Otvhzplql85zx0NSFxn1-245" edge="1">
          <mxGeometry relative="1" as="geometry" />
        </mxCell>
        <mxCell id="Otvhzplql85zx0NSFxn1-243" value="Fifth char input" style="ellipse;whiteSpace=wrap;html=1;" parent="1" vertex="1">
          <mxGeometry x="-1300" y="-85" width="79.29" height="35" as="geometry" />
        </mxCell>
        <mxCell id="Otvhzplql85zx0NSFxn1-244" value="6/6 lives" style="rounded=1;whiteSpace=wrap;html=1;" parent="1" vertex="1">
          <mxGeometry x="-1520" y="-85" width="120" height="15" as="geometry" />
        </mxCell>
        <mxCell id="Otvhzplql85zx0NSFxn1-245" value="5/6 lives" style="rounded=1;whiteSpace=wrap;html=1;" parent="1" vertex="1">
          <mxGeometry x="-1520" y="-65" width="120" height="15" as="geometry" />
        </mxCell>
        <mxCell id="Otvhzplql85zx0NSFxn1-246" style="edgeStyle=orthogonalEdgeStyle;rounded=0;orthogonalLoop=1;jettySize=auto;html=1;entryX=1;entryY=0.5;entryDx=0;entryDy=0;" parent="1" target="Otvhzplql85zx0NSFxn1-249" edge="1">
          <mxGeometry relative="1" as="geometry">
            <mxPoint x="-1180" y="-22.5" as="sourcePoint" />
          </mxGeometry>
        </mxCell>
        <mxCell id="Otvhzplql85zx0NSFxn1-247" style="edgeStyle=orthogonalEdgeStyle;rounded=0;orthogonalLoop=1;jettySize=auto;html=1;entryX=1;entryY=0.5;entryDx=0;entryDy=0;" parent="1" source="Otvhzplql85zx0NSFxn1-249" target="Otvhzplql85zx0NSFxn1-250" edge="1">
          <mxGeometry relative="1" as="geometry" />
        </mxCell>
        <mxCell id="Otvhzplql85zx0NSFxn1-248" style="edgeStyle=orthogonalEdgeStyle;rounded=0;orthogonalLoop=1;jettySize=auto;html=1;entryX=1;entryY=0.75;entryDx=0;entryDy=0;" parent="1" source="Otvhzplql85zx0NSFxn1-249" target="Otvhzplql85zx0NSFxn1-251" edge="1">
          <mxGeometry relative="1" as="geometry" />
        </mxCell>
        <mxCell id="Otvhzplql85zx0NSFxn1-249" value="Fifth char input" style="ellipse;whiteSpace=wrap;html=1;" parent="1" vertex="1">
          <mxGeometry x="-1300" y="-40" width="79.29" height="35" as="geometry" />
        </mxCell>
        <mxCell id="Otvhzplql85zx0NSFxn1-250" value="6/6 lives" style="rounded=1;whiteSpace=wrap;html=1;" parent="1" vertex="1">
          <mxGeometry x="-1520" y="-40" width="120" height="15" as="geometry" />
        </mxCell>
        <mxCell id="Otvhzplql85zx0NSFxn1-251" value="5/6 lives" style="rounded=1;whiteSpace=wrap;html=1;" parent="1" vertex="1">
          <mxGeometry x="-1520" y="-20" width="120" height="15" as="geometry" />
        </mxCell>
        <mxCell id="Otvhzplql85zx0NSFxn1-252" style="edgeStyle=orthogonalEdgeStyle;rounded=0;orthogonalLoop=1;jettySize=auto;html=1;entryX=1;entryY=0.5;entryDx=0;entryDy=0;" parent="1" target="Otvhzplql85zx0NSFxn1-255" edge="1">
          <mxGeometry relative="1" as="geometry">
            <mxPoint x="-1180" y="20" as="sourcePoint" />
          </mxGeometry>
        </mxCell>
        <mxCell id="Otvhzplql85zx0NSFxn1-253" style="edgeStyle=orthogonalEdgeStyle;rounded=0;orthogonalLoop=1;jettySize=auto;html=1;entryX=1;entryY=0.5;entryDx=0;entryDy=0;" parent="1" source="Otvhzplql85zx0NSFxn1-255" target="Otvhzplql85zx0NSFxn1-256" edge="1">
          <mxGeometry relative="1" as="geometry" />
        </mxCell>
        <mxCell id="Otvhzplql85zx0NSFxn1-254" style="edgeStyle=orthogonalEdgeStyle;rounded=0;orthogonalLoop=1;jettySize=auto;html=1;entryX=1;entryY=0.75;entryDx=0;entryDy=0;" parent="1" source="Otvhzplql85zx0NSFxn1-255" target="Otvhzplql85zx0NSFxn1-257" edge="1">
          <mxGeometry relative="1" as="geometry" />
        </mxCell>
        <mxCell id="Otvhzplql85zx0NSFxn1-255" value="Fifth char input" style="ellipse;whiteSpace=wrap;html=1;" parent="1" vertex="1">
          <mxGeometry x="-1300" y="2.5" width="79.29" height="35" as="geometry" />
        </mxCell>
        <mxCell id="Otvhzplql85zx0NSFxn1-256" value="6/6 lives" style="rounded=1;whiteSpace=wrap;html=1;" parent="1" vertex="1">
          <mxGeometry x="-1520" y="2.5" width="120" height="15" as="geometry" />
        </mxCell>
        <mxCell id="Otvhzplql85zx0NSFxn1-257" value="5/6 lives" style="rounded=1;whiteSpace=wrap;html=1;" parent="1" vertex="1">
          <mxGeometry x="-1520" y="22.5" width="120" height="15" as="geometry" />
        </mxCell>
        <mxCell id="Otvhzplql85zx0NSFxn1-258" style="edgeStyle=orthogonalEdgeStyle;rounded=0;orthogonalLoop=1;jettySize=auto;html=1;entryX=1;entryY=0.5;entryDx=0;entryDy=0;" parent="1" target="Otvhzplql85zx0NSFxn1-261" edge="1">
          <mxGeometry relative="1" as="geometry">
            <mxPoint x="-1180" y="55" as="sourcePoint" />
          </mxGeometry>
        </mxCell>
        <mxCell id="Otvhzplql85zx0NSFxn1-259" style="edgeStyle=orthogonalEdgeStyle;rounded=0;orthogonalLoop=1;jettySize=auto;html=1;entryX=1;entryY=0.5;entryDx=0;entryDy=0;" parent="1" source="Otvhzplql85zx0NSFxn1-261" target="Otvhzplql85zx0NSFxn1-262" edge="1">
          <mxGeometry relative="1" as="geometry" />
        </mxCell>
        <mxCell id="Otvhzplql85zx0NSFxn1-260" style="edgeStyle=orthogonalEdgeStyle;rounded=0;orthogonalLoop=1;jettySize=auto;html=1;entryX=1;entryY=0.75;entryDx=0;entryDy=0;" parent="1" source="Otvhzplql85zx0NSFxn1-261" target="Otvhzplql85zx0NSFxn1-263" edge="1">
          <mxGeometry relative="1" as="geometry" />
        </mxCell>
        <mxCell id="Otvhzplql85zx0NSFxn1-261" value="Fifth char input" style="ellipse;whiteSpace=wrap;html=1;" parent="1" vertex="1">
          <mxGeometry x="-1300" y="37.5" width="79.29" height="35" as="geometry" />
        </mxCell>
        <mxCell id="Otvhzplql85zx0NSFxn1-262" value="6/6 lives" style="rounded=1;whiteSpace=wrap;html=1;" parent="1" vertex="1">
          <mxGeometry x="-1520" y="37.5" width="120" height="15" as="geometry" />
        </mxCell>
        <mxCell id="Otvhzplql85zx0NSFxn1-263" value="5/6 lives" style="rounded=1;whiteSpace=wrap;html=1;" parent="1" vertex="1">
          <mxGeometry x="-1520" y="57.5" width="120" height="15" as="geometry" />
        </mxCell>
        <mxCell id="Otvhzplql85zx0NSFxn1-264" style="edgeStyle=orthogonalEdgeStyle;rounded=0;orthogonalLoop=1;jettySize=auto;html=1;entryX=1;entryY=0.5;entryDx=0;entryDy=0;" parent="1" target="Otvhzplql85zx0NSFxn1-267" edge="1">
          <mxGeometry relative="1" as="geometry">
            <mxPoint x="-1180" y="97.5" as="sourcePoint" />
          </mxGeometry>
        </mxCell>
        <mxCell id="Otvhzplql85zx0NSFxn1-265" style="edgeStyle=orthogonalEdgeStyle;rounded=0;orthogonalLoop=1;jettySize=auto;html=1;entryX=1;entryY=0.5;entryDx=0;entryDy=0;" parent="1" source="Otvhzplql85zx0NSFxn1-267" target="Otvhzplql85zx0NSFxn1-268" edge="1">
          <mxGeometry relative="1" as="geometry" />
        </mxCell>
        <mxCell id="Otvhzplql85zx0NSFxn1-266" style="edgeStyle=orthogonalEdgeStyle;rounded=0;orthogonalLoop=1;jettySize=auto;html=1;entryX=1;entryY=0.75;entryDx=0;entryDy=0;" parent="1" source="Otvhzplql85zx0NSFxn1-267" target="Otvhzplql85zx0NSFxn1-269" edge="1">
          <mxGeometry relative="1" as="geometry" />
        </mxCell>
        <mxCell id="Otvhzplql85zx0NSFxn1-267" value="Fifth char input" style="ellipse;whiteSpace=wrap;html=1;" parent="1" vertex="1">
          <mxGeometry x="-1300" y="80" width="79.29" height="35" as="geometry" />
        </mxCell>
        <mxCell id="Otvhzplql85zx0NSFxn1-268" value="6/6 lives" style="rounded=1;whiteSpace=wrap;html=1;" parent="1" vertex="1">
          <mxGeometry x="-1520" y="80" width="120" height="15" as="geometry" />
        </mxCell>
        <mxCell id="Otvhzplql85zx0NSFxn1-269" value="5/6 lives" style="rounded=1;whiteSpace=wrap;html=1;" parent="1" vertex="1">
          <mxGeometry x="-1520" y="100" width="120" height="15" as="geometry" />
        </mxCell>
        <mxCell id="Otvhzplql85zx0NSFxn1-270" style="edgeStyle=orthogonalEdgeStyle;rounded=0;orthogonalLoop=1;jettySize=auto;html=1;entryX=1;entryY=0.5;entryDx=0;entryDy=0;" parent="1" target="Otvhzplql85zx0NSFxn1-273" edge="1">
          <mxGeometry relative="1" as="geometry">
            <mxPoint x="-1180" y="140" as="sourcePoint" />
          </mxGeometry>
        </mxCell>
        <mxCell id="Otvhzplql85zx0NSFxn1-271" style="edgeStyle=orthogonalEdgeStyle;rounded=0;orthogonalLoop=1;jettySize=auto;html=1;entryX=1;entryY=0.5;entryDx=0;entryDy=0;" parent="1" source="Otvhzplql85zx0NSFxn1-273" target="Otvhzplql85zx0NSFxn1-274" edge="1">
          <mxGeometry relative="1" as="geometry" />
        </mxCell>
        <mxCell id="Otvhzplql85zx0NSFxn1-272" style="edgeStyle=orthogonalEdgeStyle;rounded=0;orthogonalLoop=1;jettySize=auto;html=1;entryX=1;entryY=0.75;entryDx=0;entryDy=0;" parent="1" source="Otvhzplql85zx0NSFxn1-273" target="Otvhzplql85zx0NSFxn1-275" edge="1">
          <mxGeometry relative="1" as="geometry" />
        </mxCell>
        <mxCell id="Otvhzplql85zx0NSFxn1-273" value="Fifth char input" style="ellipse;whiteSpace=wrap;html=1;" parent="1" vertex="1">
          <mxGeometry x="-1300" y="122.5" width="79.29" height="35" as="geometry" />
        </mxCell>
        <mxCell id="Otvhzplql85zx0NSFxn1-274" value="6/6 lives" style="rounded=1;whiteSpace=wrap;html=1;" parent="1" vertex="1">
          <mxGeometry x="-1520" y="122.5" width="120" height="15" as="geometry" />
        </mxCell>
        <mxCell id="Otvhzplql85zx0NSFxn1-275" value="5/6 lives" style="rounded=1;whiteSpace=wrap;html=1;" parent="1" vertex="1">
          <mxGeometry x="-1520" y="142.5" width="120" height="15" as="geometry" />
        </mxCell>
        <mxCell id="Otvhzplql85zx0NSFxn1-276" style="edgeStyle=orthogonalEdgeStyle;rounded=0;orthogonalLoop=1;jettySize=auto;html=1;entryX=1;entryY=0.5;entryDx=0;entryDy=0;" parent="1" target="Otvhzplql85zx0NSFxn1-279" edge="1">
          <mxGeometry relative="1" as="geometry">
            <mxPoint x="-1180" y="182.5" as="sourcePoint" />
          </mxGeometry>
        </mxCell>
        <mxCell id="Otvhzplql85zx0NSFxn1-277" style="edgeStyle=orthogonalEdgeStyle;rounded=0;orthogonalLoop=1;jettySize=auto;html=1;entryX=1;entryY=0.5;entryDx=0;entryDy=0;" parent="1" source="Otvhzplql85zx0NSFxn1-279" target="Otvhzplql85zx0NSFxn1-280" edge="1">
          <mxGeometry relative="1" as="geometry" />
        </mxCell>
        <mxCell id="Otvhzplql85zx0NSFxn1-278" style="edgeStyle=orthogonalEdgeStyle;rounded=0;orthogonalLoop=1;jettySize=auto;html=1;entryX=1;entryY=0.75;entryDx=0;entryDy=0;" parent="1" source="Otvhzplql85zx0NSFxn1-279" target="Otvhzplql85zx0NSFxn1-281" edge="1">
          <mxGeometry relative="1" as="geometry" />
        </mxCell>
        <mxCell id="Otvhzplql85zx0NSFxn1-279" value="Fifth char input" style="ellipse;whiteSpace=wrap;html=1;" parent="1" vertex="1">
          <mxGeometry x="-1300" y="165" width="79.29" height="35" as="geometry" />
        </mxCell>
        <mxCell id="Otvhzplql85zx0NSFxn1-280" value="6/6 lives" style="rounded=1;whiteSpace=wrap;html=1;" parent="1" vertex="1">
          <mxGeometry x="-1520" y="165" width="120" height="15" as="geometry" />
        </mxCell>
        <mxCell id="Otvhzplql85zx0NSFxn1-281" value="5/6 lives" style="rounded=1;whiteSpace=wrap;html=1;" parent="1" vertex="1">
          <mxGeometry x="-1520" y="185" width="120" height="15" as="geometry" />
        </mxCell>
        <mxCell id="Otvhzplql85zx0NSFxn1-282" style="edgeStyle=orthogonalEdgeStyle;rounded=0;orthogonalLoop=1;jettySize=auto;html=1;entryX=1;entryY=0.5;entryDx=0;entryDy=0;" parent="1" target="Otvhzplql85zx0NSFxn1-285" edge="1">
          <mxGeometry relative="1" as="geometry">
            <mxPoint x="-1180" y="217.5" as="sourcePoint" />
          </mxGeometry>
        </mxCell>
        <mxCell id="Otvhzplql85zx0NSFxn1-283" style="edgeStyle=orthogonalEdgeStyle;rounded=0;orthogonalLoop=1;jettySize=auto;html=1;entryX=1;entryY=0.5;entryDx=0;entryDy=0;" parent="1" source="Otvhzplql85zx0NSFxn1-285" target="Otvhzplql85zx0NSFxn1-286" edge="1">
          <mxGeometry relative="1" as="geometry" />
        </mxCell>
        <mxCell id="Otvhzplql85zx0NSFxn1-284" style="edgeStyle=orthogonalEdgeStyle;rounded=0;orthogonalLoop=1;jettySize=auto;html=1;entryX=1;entryY=0.75;entryDx=0;entryDy=0;" parent="1" source="Otvhzplql85zx0NSFxn1-285" target="Otvhzplql85zx0NSFxn1-287" edge="1">
          <mxGeometry relative="1" as="geometry" />
        </mxCell>
        <mxCell id="Otvhzplql85zx0NSFxn1-285" value="Fifth char input" style="ellipse;whiteSpace=wrap;html=1;" parent="1" vertex="1">
          <mxGeometry x="-1300" y="200" width="79.29" height="35" as="geometry" />
        </mxCell>
        <mxCell id="Otvhzplql85zx0NSFxn1-286" value="6/6 lives" style="rounded=1;whiteSpace=wrap;html=1;" parent="1" vertex="1">
          <mxGeometry x="-1520" y="200" width="120" height="15" as="geometry" />
        </mxCell>
        <mxCell id="Otvhzplql85zx0NSFxn1-287" value="5/6 lives" style="rounded=1;whiteSpace=wrap;html=1;" parent="1" vertex="1">
          <mxGeometry x="-1520" y="220" width="120" height="15" as="geometry" />
        </mxCell>
        <mxCell id="Otvhzplql85zx0NSFxn1-288" style="edgeStyle=orthogonalEdgeStyle;rounded=0;orthogonalLoop=1;jettySize=auto;html=1;entryX=1;entryY=0.5;entryDx=0;entryDy=0;" parent="1" target="Otvhzplql85zx0NSFxn1-291" edge="1">
          <mxGeometry relative="1" as="geometry">
            <mxPoint x="-1180" y="260" as="sourcePoint" />
          </mxGeometry>
        </mxCell>
        <mxCell id="Otvhzplql85zx0NSFxn1-289" style="edgeStyle=orthogonalEdgeStyle;rounded=0;orthogonalLoop=1;jettySize=auto;html=1;entryX=1;entryY=0.5;entryDx=0;entryDy=0;" parent="1" source="Otvhzplql85zx0NSFxn1-291" target="Otvhzplql85zx0NSFxn1-292" edge="1">
          <mxGeometry relative="1" as="geometry" />
        </mxCell>
        <mxCell id="Otvhzplql85zx0NSFxn1-290" style="edgeStyle=orthogonalEdgeStyle;rounded=0;orthogonalLoop=1;jettySize=auto;html=1;entryX=1;entryY=0.75;entryDx=0;entryDy=0;" parent="1" source="Otvhzplql85zx0NSFxn1-291" target="Otvhzplql85zx0NSFxn1-293" edge="1">
          <mxGeometry relative="1" as="geometry" />
        </mxCell>
        <mxCell id="Otvhzplql85zx0NSFxn1-291" value="Fifth char input" style="ellipse;whiteSpace=wrap;html=1;" parent="1" vertex="1">
          <mxGeometry x="-1300" y="242.5" width="79.29" height="35" as="geometry" />
        </mxCell>
        <mxCell id="Otvhzplql85zx0NSFxn1-292" value="6/6 lives" style="rounded=1;whiteSpace=wrap;html=1;" parent="1" vertex="1">
          <mxGeometry x="-1520" y="242.5" width="120" height="15" as="geometry" />
        </mxCell>
        <mxCell id="Otvhzplql85zx0NSFxn1-293" value="5/6 lives" style="rounded=1;whiteSpace=wrap;html=1;" parent="1" vertex="1">
          <mxGeometry x="-1520" y="262.5" width="120" height="15" as="geometry" />
        </mxCell>
        <mxCell id="Otvhzplql85zx0NSFxn1-300" style="edgeStyle=orthogonalEdgeStyle;rounded=0;orthogonalLoop=1;jettySize=auto;html=1;" parent="1" source="Otvhzplql85zx0NSFxn1-294" edge="1">
          <mxGeometry relative="1" as="geometry">
            <mxPoint x="-730" y="630" as="targetPoint" />
          </mxGeometry>
        </mxCell>
        <mxCell id="Otvhzplql85zx0NSFxn1-294" value="Start" style="rounded=1;whiteSpace=wrap;html=1;" parent="1" vertex="1">
          <mxGeometry x="-790" y="540" width="120" height="60" as="geometry" />
        </mxCell>
        <mxCell id="Otvhzplql85zx0NSFxn1-301" style="edgeStyle=orthogonalEdgeStyle;rounded=0;orthogonalLoop=1;jettySize=auto;html=1;" parent="1" source="Otvhzplql85zx0NSFxn1-296" edge="1">
          <mxGeometry relative="1" as="geometry">
            <mxPoint x="-730" y="730" as="targetPoint" />
          </mxGeometry>
        </mxCell>
        <mxCell id="Otvhzplql85zx0NSFxn1-296" value="generate a word" style="rounded=0;whiteSpace=wrap;html=1;" parent="1" vertex="1">
          <mxGeometry x="-790" y="640" width="120" height="60" as="geometry" />
        </mxCell>
        <mxCell id="Otvhzplql85zx0NSFxn1-298" value="generate it blank letters" style="rounded=0;whiteSpace=wrap;html=1;" parent="1" vertex="1">
          <mxGeometry x="-790" y="740" width="120" height="60" as="geometry" />
        </mxCell>
        <mxCell id="Otvhzplql85zx0NSFxn1-302" value="" style="endArrow=classic;html=1;rounded=0;" parent="1" source="Otvhzplql85zx0NSFxn1-298" edge="1">
          <mxGeometry width="50" height="50" relative="1" as="geometry">
            <mxPoint x="-730" y="850" as="sourcePoint" />
            <mxPoint x="-730" y="870.7106781186548" as="targetPoint" />
          </mxGeometry>
        </mxCell>
        <mxCell id="Otvhzplql85zx0NSFxn1-303" value="Is the guessed letter in the word?" style="rounded=1;whiteSpace=wrap;html=1;" parent="1" vertex="1">
          <mxGeometry x="-790" y="890" width="120" height="60" as="geometry" />
        </mxCell>
        <mxCell id="Otvhzplql85zx0NSFxn1-306" value="minus one life" style="rounded=1;whiteSpace=wrap;html=1;" parent="1" vertex="1">
          <mxGeometry x="-570" y="1080" width="120" height="60" as="geometry" />
        </mxCell>
        <mxCell id="Otvhzplql85zx0NSFxn1-310" value="Keep life" style="rounded=1;whiteSpace=wrap;html=1;" parent="1" vertex="1">
          <mxGeometry x="-1010" y="1080" width="120" height="60" as="geometry" />
        </mxCell>
        <mxCell id="Otvhzplql85zx0NSFxn1-313" value="" style="endArrow=none;html=1;rounded=0;" parent="1" source="Otvhzplql85zx0NSFxn1-303" edge="1">
          <mxGeometry width="50" height="50" relative="1" as="geometry">
            <mxPoint x="-860.7106781186548" y="970" as="sourcePoint" />
            <mxPoint x="-950" y="920" as="targetPoint" />
          </mxGeometry>
        </mxCell>
        <mxCell id="Otvhzplql85zx0NSFxn1-314" value="" style="endArrow=classic;html=1;rounded=0;" parent="1" edge="1">
          <mxGeometry width="50" height="50" relative="1" as="geometry">
            <mxPoint x="-950" y="920" as="sourcePoint" />
            <mxPoint x="-950" y="1070" as="targetPoint" />
          </mxGeometry>
        </mxCell>
        <mxCell id="Otvhzplql85zx0NSFxn1-315" value="" style="endArrow=none;html=1;rounded=0;" parent="1" edge="1">
          <mxGeometry width="50" height="50" relative="1" as="geometry">
            <mxPoint x="-510" y="919.55" as="sourcePoint" />
            <mxPoint x="-670" y="919.55" as="targetPoint" />
          </mxGeometry>
        </mxCell>
        <mxCell id="Otvhzplql85zx0NSFxn1-317" value="" style="endArrow=classic;html=1;rounded=0;" parent="1" edge="1">
          <mxGeometry width="50" height="50" relative="1" as="geometry">
            <mxPoint x="-510" y="920" as="sourcePoint" />
            <mxPoint x="-510" y="1070" as="targetPoint" />
          </mxGeometry>
        </mxCell>
        <mxCell id="Otvhzplql85zx0NSFxn1-318" value="Yes" style="text;html=1;align=center;verticalAlign=middle;resizable=0;points=[];autosize=1;strokeColor=none;fillColor=none;" parent="1" vertex="1">
          <mxGeometry x="-890" y="930" width="40" height="30" as="geometry" />
        </mxCell>
        <mxCell id="Otvhzplql85zx0NSFxn1-319" value="No" style="text;html=1;align=center;verticalAlign=middle;resizable=0;points=[];autosize=1;strokeColor=none;fillColor=none;" parent="1" vertex="1">
          <mxGeometry x="-610" y="930" width="40" height="30" as="geometry" />
        </mxCell>
        <mxCell id="Otvhzplql85zx0NSFxn1-321" value="left_life" style="rounded=0;whiteSpace=wrap;html=1;" parent="1" vertex="1">
          <mxGeometry x="-790" y="1220" width="120" height="60" as="geometry" />
        </mxCell>
        <mxCell id="Otvhzplql85zx0NSFxn1-322" value="If left_life = 0" style="text;html=1;align=center;verticalAlign=middle;resizable=0;points=[];autosize=1;strokeColor=none;fillColor=none;" parent="1" vertex="1">
          <mxGeometry x="-660" y="1260" width="90" height="30" as="geometry" />
        </mxCell>
        <mxCell id="Otvhzplql85zx0NSFxn1-323" value="If left_life &amp;gt; 0" style="text;html=1;align=center;verticalAlign=middle;resizable=0;points=[];autosize=1;strokeColor=none;fillColor=none;" parent="1" vertex="1">
          <mxGeometry x="-900" y="1260" width="90" height="30" as="geometry" />
        </mxCell>
        <mxCell id="Otvhzplql85zx0NSFxn1-324" value="" style="endArrow=none;html=1;rounded=0;" parent="1" source="Otvhzplql85zx0NSFxn1-321" edge="1">
          <mxGeometry width="50" height="50" relative="1" as="geometry">
            <mxPoint x="-860.7106781186548" y="1300" as="sourcePoint" />
            <mxPoint x="-1060" y="1250" as="targetPoint" />
          </mxGeometry>
        </mxCell>
        <mxCell id="Otvhzplql85zx0NSFxn1-326" value="" style="endArrow=none;html=1;rounded=0;" parent="1" edge="1">
          <mxGeometry width="50" height="50" relative="1" as="geometry">
            <mxPoint x="-1060" y="1250" as="sourcePoint" />
            <mxPoint x="-1060" y="900" as="targetPoint" />
          </mxGeometry>
        </mxCell>
        <mxCell id="Otvhzplql85zx0NSFxn1-327" value="" style="endArrow=classic;html=1;rounded=0;" parent="1" edge="1">
          <mxGeometry width="50" height="50" relative="1" as="geometry">
            <mxPoint x="-1060" y="900" as="sourcePoint" />
            <mxPoint x="-800" y="900" as="targetPoint" />
          </mxGeometry>
        </mxCell>
        <mxCell id="Otvhzplql85zx0NSFxn1-328" value="" style="endArrow=classic;html=1;rounded=0;" parent="1" source="Otvhzplql85zx0NSFxn1-321" edge="1">
          <mxGeometry width="50" height="50" relative="1" as="geometry">
            <mxPoint x="-670" y="1300" as="sourcePoint" />
            <mxPoint x="-420" y="1250" as="targetPoint" />
          </mxGeometry>
        </mxCell>
        <mxCell id="Otvhzplql85zx0NSFxn1-329" value="Dead" style="shape=umlActor;verticalLabelPosition=bottom;verticalAlign=top;html=1;outlineConnect=0;" parent="1" vertex="1">
          <mxGeometry x="-270" y="1230" width="30" height="60" as="geometry" />
        </mxCell>
        <mxCell id="Otvhzplql85zx0NSFxn1-332" value="Game over" style="rounded=0;whiteSpace=wrap;html=1;" parent="1" vertex="1">
          <mxGeometry x="-410" y="1225" width="110" height="50" as="geometry" />
        </mxCell>
        <mxCell id="Otvhzplql85zx0NSFxn1-333" value="" style="endArrow=classic;html=1;rounded=0;entryX=1;entryY=0;entryDx=0;entryDy=0;" parent="1" source="Otvhzplql85zx0NSFxn1-306" target="Otvhzplql85zx0NSFxn1-321" edge="1">
          <mxGeometry width="50" height="50" relative="1" as="geometry">
            <mxPoint x="-640.7106781186548" y="1160" as="sourcePoint" />
            <mxPoint x="-640.7106781186548" y="1110" as="targetPoint" />
          </mxGeometry>
        </mxCell>
        <mxCell id="Otvhzplql85zx0NSFxn1-334" value="" style="endArrow=classic;html=1;rounded=0;entryX=0;entryY=0;entryDx=0;entryDy=0;" parent="1" source="Otvhzplql85zx0NSFxn1-310" target="Otvhzplql85zx0NSFxn1-321" edge="1">
          <mxGeometry width="50" height="50" relative="1" as="geometry">
            <mxPoint x="-890" y="1160" as="sourcePoint" />
            <mxPoint x="-819.2893218813452" y="1110" as="targetPoint" />
          </mxGeometry>
        </mxCell>
        <mxCell id="Otvhzplql85zx0NSFxn1-335" value="" style="endArrow=classic;html=1;rounded=0;" parent="1" source="Otvhzplql85zx0NSFxn1-303" edge="1">
          <mxGeometry width="50" height="50" relative="1" as="geometry">
            <mxPoint x="-730" y="1000" as="sourcePoint" />
            <mxPoint x="-730" y="980" as="targetPoint" />
          </mxGeometry>
        </mxCell>
        <mxCell id="Otvhzplql85zx0NSFxn1-336" value="is the word guessed?" style="rounded=1;whiteSpace=wrap;html=1;" parent="1" vertex="1">
          <mxGeometry x="-775" y="990" width="90" height="40" as="geometry" />
        </mxCell>
        <mxCell id="Otvhzplql85zx0NSFxn1-337" value="Yes" style="text;html=1;align=center;verticalAlign=middle;resizable=0;points=[];autosize=1;strokeColor=none;fillColor=none;" parent="1" vertex="1">
          <mxGeometry x="-775" y="1030" width="40" height="30" as="geometry" />
        </mxCell>
        <mxCell id="Otvhzplql85zx0NSFxn1-338" value="" style="endArrow=classic;html=1;rounded=0;" parent="1" source="Otvhzplql85zx0NSFxn1-336" edge="1">
          <mxGeometry width="50" height="50" relative="1" as="geometry">
            <mxPoint x="-845.7106781186548" y="1060" as="sourcePoint" />
            <mxPoint x="-730" y="1060" as="targetPoint" />
          </mxGeometry>
        </mxCell>
        <mxCell id="Otvhzplql85zx0NSFxn1-339" value="Win" style="whiteSpace=wrap;html=1;" parent="1" vertex="1">
          <mxGeometry x="-770" y="1070" width="80" height="40" as="geometry" />
        </mxCell>
        <mxCell id="Otvhzplql85zx0NSFxn1-340" value="Alive" style="shape=umlActor;verticalLabelPosition=bottom;verticalAlign=top;html=1;outlineConnect=0;" parent="1" vertex="1">
          <mxGeometry x="-735" y="1120" width="10" height="20" as="geometry" />
        </mxCell>
        <mxCell id="Otvhzplql85zx0NSFxn1-342" value="" style="endArrow=none;html=1;rounded=0;" parent="1" source="Otvhzplql85zx0NSFxn1-336" edge="1">
          <mxGeometry width="50" height="50" relative="1" as="geometry">
            <mxPoint x="-685" y="1060" as="sourcePoint" />
            <mxPoint x="-650" y="1010" as="targetPoint" />
          </mxGeometry>
        </mxCell>
        <mxCell id="Otvhzplql85zx0NSFxn1-343" value="" style="endArrow=none;html=1;rounded=0;" parent="1" edge="1">
          <mxGeometry width="50" height="50" relative="1" as="geometry">
            <mxPoint x="-650" y="1010" as="sourcePoint" />
            <mxPoint x="-650" y="930" as="targetPoint" />
          </mxGeometry>
        </mxCell>
        <mxCell id="Otvhzplql85zx0NSFxn1-344" value="" style="endArrow=classic;html=1;rounded=0;" parent="1" edge="1">
          <mxGeometry width="50" height="50" relative="1" as="geometry">
            <mxPoint x="-650" y="930" as="sourcePoint" />
            <mxPoint x="-660" y="930" as="targetPoint" />
          </mxGeometry>
        </mxCell>
        <mxCell id="Otvhzplql85zx0NSFxn1-345" value="No" style="text;html=1;align=center;verticalAlign=middle;resizable=0;points=[];autosize=1;strokeColor=none;fillColor=none;" parent="1" vertex="1">
          <mxGeometry x="-680" y="1008" width="40" height="30" as="geometry" />
        </mxCell>
      </root>
    </mxGraphModel>
  </diagram>
</mxfile>
